<?xml version="1.0" encoding="UTF-8"?>
<svg id="Layer_1" data-name="Layer 1" xmlns="http://www.w3.org/2000/svg" viewBox="0 0 128.01 139.61">
  <defs>
    <style>
      .cls-1 {
        stroke-dasharray: 2 2;
      }

      .cls-1, .cls-2 {
        fill: #fff;
        stroke: #aaa;
        stroke-miterlimit: 10;
      }
    </style>
  </defs>
  <path class="cls-2" d="M34.36,15.54l-20.64,6.03c-.85.23-1.24,1.15-.79,1.85,2.32,3.61,8.12,13.82,8.12,25.61,0,12.97-3.4,25.31-4.21,28.06-.11.39-.14.78-.08,1.18l6.01,38.78c.16,1.03.9,1.91,1.94,2.29l19.1,7.08c.88.32,1.86.26,2.68-.17l16.58-8.69c.98-.51,1.59-1.48,1.59-2.53l.32-60.46c0-.42-.09-.83-.28-1.21,0,0-10.47-6.83-19.94-20.96-2.6-3.88-7.8-15.74-7.8-15.74-.45-.93-1.56-1.41-2.61-1.12Z"/>
  <path class="cls-2" d="M91.68,15.54l20.3,6.03c.84.23,1.23,1.15.78,1.85-2.29,3.61-8.03,13.82-8.03,25.61,0,12.97,3.36,25.31,4.16,28.06.11.39.14.78.08,1.18l-5.94,38.78c-.16,1.03-.89,1.91-1.92,2.29l-18.88,7.08c-.87.32-1.84.26-2.65-.17l-16.39-8.69c-.97-.51-1.57-1.48-1.58-2.53l-.31-60.46c0-.42.09-.83.27-1.21,0,0,13.23-8.88,19.93-19.62,4.49-7.2,7.6-17.08,7.6-17.08.44-.93,1.54-1.41,2.58-1.12Z"/>
  <path class="cls-1" d="M20.85,42.71s16.29,15.17,19.42,27.33,3.53,56.38,3.53,56.38"/>
  <path class="cls-1" d="M104.78,42.71s-16.29,15.17-19.42,27.33-3.53,56.38-3.53,56.38"/>
  <circle class="cls-2" cx="67.02" cy="58.4" r="3.28"/>
  <circle class="cls-2" cx="67.02" cy="84.34" r="3.28"/>
  <circle class="cls-2" cx="67.02" cy="110.29" r="3.28"/>
</svg>